Coordinates
version=1
nRows=38
nColumns=12
inDegrees=yes

Units are S.I. units (second, meters, Newtons, ...)
Angles are in degrees

endheader
time	SC_y	SC_z	SC_x	AC_y	AC_z	AC_x	GH_y	GH_z	GH_yy	EL_x	PS_y
       0.0              -18.98          4.523           56.0          54.75         -12.02        -0.4457         -92.48          83.58          86.89          132.6          54.22
   0.01703              -18.99          4.524           56.0          54.75         -12.02        -0.4458         -92.46          83.58          86.87          132.6          54.23
   0.03406              -18.99          4.526          55.99          54.74         -12.02        -0.4459         -92.44          83.57          86.85          132.6          54.24
   0.05109              -18.99          4.527          55.99          54.74         -12.02         -0.446         -92.42          83.56          86.83          132.6          54.25
   0.06812               -19.0          4.528          55.98          54.74         -12.01        -0.4462          -92.4          83.55          86.81          132.6          54.26
   0.08515               -19.0           4.53          55.98          54.73         -12.01        -0.4463         -92.37          83.54          86.79          132.6          54.27
    0.1022               -19.0          4.532          55.97          54.73          -12.0        -0.4464         -92.35          83.53          86.76          132.6          54.28
    0.1192              -19.01          4.533          55.96          54.72          -12.0        -0.4466         -92.32          83.52          86.74          132.6          54.29
    0.1362              -19.01          4.535          55.95          54.72          -12.0        -0.4468         -92.29          83.51          86.71          132.5          54.31
    0.1533              -19.01          4.537          55.94          54.71         -11.99        -0.4469         -92.26           83.5          86.68          132.5          54.32
    0.1703              -19.02          4.539          55.94          54.71         -11.99        -0.4471         -92.22          83.48          86.65          132.5          54.34
    0.1873              -19.02          4.542          55.93           54.7         -11.98        -0.4473         -92.18          83.47          86.61          132.5          54.35
    0.2043              -19.03          4.544          55.92          54.69         -11.98        -0.4476         -92.14          83.45          86.58          132.5          54.37
    0.2214              -19.04          4.547           55.9          54.69         -11.97        -0.4478          -92.1          83.43          86.53          132.5          54.39
    0.2384              -19.04           4.55          55.89          54.68         -11.96        -0.4481         -92.05          83.42          86.49          132.5          54.41
    0.2554              -19.05          4.553          55.88          54.67         -11.95        -0.4484          -92.0           83.4          86.44          132.5          54.43
    0.2725              -19.06          4.557          55.86          54.66         -11.95        -0.4487         -91.94          83.37          86.39          132.5          54.46
    0.2895              -19.07          4.561          55.85          54.65         -11.94         -0.449         -91.88          83.35          86.33          132.5          54.48
    0.3065              -19.07          4.565          55.83          54.64         -11.93        -0.4494         -91.82          83.32          86.27          132.4          54.51
    0.3236              -19.08          4.569          55.81          54.63         -11.92        -0.4498         -91.74           83.3          86.21          132.4          54.54
    0.3406               -19.1          4.574          55.79          54.61         -11.91        -0.4502         -91.66          83.26          86.13          132.4          54.58
    0.3576              -19.11           4.58          55.77           54.6         -11.89        -0.4507         -91.58          83.23          86.05          132.4          54.62
    0.3746              -19.12          4.586          55.74          54.58         -11.88        -0.4512         -91.48          83.19          85.96          132.4          54.66
    0.3917              -19.13          4.592          55.71          54.56         -11.87        -0.4518         -91.37          83.15          85.86          132.3          54.71
    0.4087              -19.15            4.6          55.68          54.54         -11.85        -0.4525         -91.25           83.1          85.75          132.3          54.76
    0.4257              -19.17          4.608          55.65          54.52         -11.83        -0.4532         -91.12          83.05          85.62          132.3          54.82
    0.4428              -19.19          4.618          55.61          54.49         -11.81         -0.454         -90.97          82.99          85.49          132.3          54.88
    0.4598              -19.21          4.628          55.57          54.47         -11.78        -0.4549          -90.8          82.93          85.33          132.2          54.96
    0.4768              -19.24           4.64          55.52          54.43         -11.76         -0.456         -90.61          82.85          85.15          132.2          55.04
    0.4938              -19.27          4.653          55.46           54.4         -11.73        -0.4572         -90.39          82.77          84.95          132.1          55.13
    0.5109               -19.3          4.669           55.4          54.36         -11.69        -0.4585         -90.15          82.67          84.72          132.1          55.24
    0.5279              -19.34          4.686          55.32          54.31         -11.65        -0.4601         -89.86          82.56          84.46          132.0          55.36
    0.5449              -19.38          4.707          55.24          54.25          -11.6        -0.4618         -89.54          82.43          84.16          131.9          55.51
     0.562              -19.43          4.731          55.14          54.19         -11.55        -0.4639         -89.16          82.28          83.81          131.9          55.67
     0.579              -19.49          4.758          55.02          54.11         -11.49        -0.4664         -88.71          82.11           83.4          131.8          55.86
     0.596              -19.57          4.791          54.89          54.02         -11.41        -0.4692         -88.19           81.9          82.91          131.6          56.09
     0.613              -19.65           4.83          54.73          53.92         -11.32        -0.4726         -87.56          81.66          82.33          131.5          56.36
    0.6301              -19.75          4.876          54.53          53.79         -11.22        -0.4767         -86.82          81.37          81.64          131.3          56.69
